<?xml version="1.0" standalone="no"?>
<!DOCTYPE svg PUBLIC "-//W3C//DTD SVG 20010904//EN"
 "http://www.w3.org/TR/2001/REC-SVG-20010904/DTD/svg10.dtd">
<svg version="1.0" xmlns="http://www.w3.org/2000/svg"
 width="589.000000pt" height="589.000000pt" viewBox="0 0 589.000000 589.000000"
 preserveAspectRatio="xMidYMid meet">
<metadata>
Created by potrace 1.11, written by Peter Selinger 2001-2013
</metadata>
<g transform="translate(0.000000,589.000000) scale(0.100000,-0.100000)"
fill="#000000" stroke="none">
<path d="M0 2945 l0 -2945 2945 0 2945 0 0 2945 0 2945 -2945 0 -2945 0 0
-2945z m1635 1250 c224 -17 360 -45 506 -105 285 -116 469 -335 549 -650 27
-106 32 -146 37 -304 4 -115 2 -212 -6 -266 -36 -269 -135 -475 -310 -650
-163 -163 -336 -254 -596 -316 -60 -14 -151 -18 -612 -21 l-543 -4 0 1165 0
1166 393 0 c245 0 463 -6 582 -15z m3119 -1138 c225 -633 411 -1158 414 -1164
3 -10 -57 -13 -281 -13 l-286 0 -65 203 c-35 111 -72 228 -82 260 l-18 57
-412 0 -413 0 -65 -202 c-35 -112 -72 -229 -82 -260 l-18 -58 -284 0 c-223 0
-283 3 -280 13 3 6 193 531 424 1165 l419 1152 310 0 310 0 409 -1153z"/>
<path d="M1190 3044 l0 -736 218 5 c175 4 230 8 287 24 183 52 319 164 407
338 52 100 69 183 75 350 4 129 2 162 -16 237 -58 244 -218 414 -451 477 -87
24 -258 41 -412 41 l-108 0 0 -736z"/>
<path d="M4003 3718 c-6 -40 -72 -262 -146 -493 l-134 -420 290 -3 c160 -1
292 0 294 2 3 2 -52 181 -121 398 -114 359 -156 512 -156 568 0 46 -16 15 -27
-52z"/>
</g>
</svg>
